# xmcd CD database file
# Generated: Mon Apr 4 14:48:14 2005 by KSCD
# 
# Track frame offsets:
#       150
#       14442
#       27902
#       40442
#       54289
#       67325
#       82095
#       95855
#       110765
#       124157
#       151482
#       176770
#       190145
#       204287
#       216042
#       228140
#       243360
#       258634
#       273650
#       285735
#       301820
#       312357
#
# Disc length: 4365 seconds
#
# Revision: 1
# Processed by: cddbd v1.5.1PL0 Copyright (c) Steve Scherf et al.
# Submitted via: Kscd 1.3.2
#
DISCID=48110b16
DTITLE=Mahalia Jackson - Complete Mahalia Jackson, vol.1 - 1937-1946
DYEAR=1900
DGENRE=
TTITLE0=God's Gonna Separate The Wheat From The Tares
TTITLE1=Oh, My Lord
TTITLE2=Keep Me Everyday
TTITLE3=God Shall Wipe All Tears Away
TTITLE4=I Want To Rest
TTITLE5=He Knows My Heart
TTITLE6=Wait Until My Changes Come
TTITLE7=I'm Going To Tell God
TTITLE8=What Could I Do
TTITLE9=Move On Up A Little Higher (pt. 1&2) alt. take
TTITLE10=Move On Up A Little Higher (pt. 1&2)
TTITLE11=Even Me
TTITLE12=I Have A Friend
TTITLE13=Dig A Little Deeper
TTITLE14=Tired
TTITLE15=If You See My Saviour
TTITLE16=In My Home Over There
TTITLE17=In My Home Over There - alt. take
TTITLE18=There's Not A Friend Like Jesus
TTITLE19=Amazing Grace
TTITLE20=Amazing Grace - alt. take
TTITLE21=Since The Fire Started Burning In My Soul
EXTD=
EXTT0=
EXTT1=
EXTT2=
EXTT3=
EXTT4=
EXTT5=
EXTT6=
EXTT7=
EXTT8=
EXTT9=
EXTT10=
EXTT11=
EXTT12=
EXTT13=
EXTT14=
EXTT15=
EXTT16=
EXTT17=
EXTT18=
EXTT19=
EXTT20=
EXTT21=
PLAYORDER=
